<svg width="14" height="15" viewBox="0 0 14 15" fill="none" xmlns="http://www.w3.org/2000/svg">
<path d="M6.99984 4.8737C6.99984 6.00128 6.08575 6.91536 4.95817 6.91536C3.83059 6.91536 2.9165 6.00128 2.9165 4.8737C2.9165 3.74611 3.83059 2.83203 4.95817 2.83203C6.08575 2.83203 6.99984 3.74611 6.99984 4.8737Z" stroke="currentColor" stroke-width="1.2"/>
<path d="M7.875 6.91536C9.00258 6.91536 9.91667 6.00128 9.91667 4.8737C9.91667 3.74611 9.00258 2.83203 7.875 2.83203" stroke="currentColor" stroke-width="1.2" stroke-linecap="round"/>
<path d="M7.66653 12.168H2.24984C1.65153 12.168 1.1665 11.7203 1.1665 11.168C1.1665 9.78727 2.37907 8.66797 3.87484 8.66797H6.04148C6.65118 8.66797 7.21386 8.85394 7.66653 9.16777" stroke="currentColor" stroke-width="1.2" stroke-linecap="round" stroke-linejoin="round"/>
<path d="M11.0835 8.66797V12.168M12.8335 10.418H9.3335" stroke="currentColor" stroke-width="1.2" stroke-linecap="round"/>
</svg>
